<svg width="200" height="200" viewBox="0 0 200 200" fill="none" xmlns="http://www.w3.org/2000/svg">
<g clip-path="url(#clip0_1_4)">
<path d="M20.4035 79.1246C20.4035 77.2899 18.9178 75.801 17.0799 75.801H3.32358C1.48564 75.801 0 77.2899 0 79.1246C0 80.9592 1.48564 82.4481 3.32358 82.4481H17.0799C18.9145 82.4481 20.4035 80.9592 20.4035 79.1246Z" fill="#F0C419"/>
<path d="M69.7953 9.3293C67.9573 9.3293 66.4717 10.8183 66.4717 12.6529V26.4059C66.4717 28.2405 67.9573 29.7295 69.7953 29.7295C71.6332 29.7295 73.1188 28.2405 73.1188 26.4059V12.6529C73.1188 10.8183 71.6332 9.3293 69.7953 9.3293Z" fill="#F0C419"/>
<path d="M21.7196 26.3461C20.4201 25.0465 18.3196 25.0465 17.0201 26.3461C15.7206 27.6456 15.7206 29.7461 17.0201 31.0456L30.1682 44.1937C30.8163 44.8418 31.6671 45.1675 32.518 45.1675C33.3688 45.1675 34.2196 44.8418 34.8677 44.1937C36.1672 42.8942 36.1672 40.7937 34.8677 39.4942L21.7196 26.3461Z" fill="#F0C419"/>
<path d="M122.574 26.3461C121.274 25.0465 119.174 25.0465 117.874 26.3461L104.726 39.4942C103.427 40.7937 103.427 42.8942 104.726 44.1937C105.374 44.8418 106.225 45.1675 107.076 45.1675C107.927 45.1675 108.778 44.8418 109.426 44.1937L122.574 31.0456C123.873 29.7494 123.873 27.6456 122.574 26.3461Z" fill="#F0C419"/>
<path d="M49.5713 22.966C48.85 21.2743 46.8858 20.4899 45.2107 21.2045C43.519 21.9224 42.7313 23.8733 43.4492 25.5617L46.138 31.8931C46.6764 33.1594 47.9061 33.9205 49.199 33.9205C49.6344 33.9205 50.0764 33.8341 50.4985 33.6546C52.1902 32.9367 52.9779 30.9858 52.26 29.2974L49.5713 22.966Z" fill="#F0C419"/>
<path d="M93.3695 20.7857C91.6645 20.1044 89.7301 20.922 89.0422 22.6236L86.4664 28.9983C85.7784 30.6999 86.5993 32.6376 88.301 33.3256C88.7098 33.4884 89.1319 33.5682 89.5473 33.5682C90.8635 33.5682 92.1065 32.7838 92.6283 31.4876L95.2041 25.113C95.8921 23.4113 95.0678 21.4737 93.3695 20.7857Z" fill="#F0C419"/>
<path d="M19.9714 96.6631L13.6433 99.3519C11.9516 100.07 11.1639 102.021 11.8818 103.709C12.4202 104.975 13.6499 105.737 14.9428 105.737C15.3782 105.737 15.8202 105.65 16.2423 105.471L22.5704 102.782C24.2621 102.064 25.0498 100.113 24.3319 98.4246C23.6107 96.7329 21.6432 95.9485 19.9714 96.6631Z" fill="#F0C419"/>
<path d="M13.2943 59.881L19.669 62.4568C20.0778 62.6197 20.4999 62.6994 20.9153 62.6994C22.2315 62.6994 23.4745 61.9151 23.9963 60.6222C24.6843 58.9205 23.8633 56.9829 22.1617 56.2949L15.787 53.7158C14.0854 53.0344 12.1477 53.852 11.4597 55.5504C10.7717 57.2554 11.5927 59.193 13.2943 59.881Z" fill="#F0C419"/>
<path d="M42.5618 115.913C44.9515 116.176 47.2747 116.654 49.4981 117.372C48.0158 110.635 49.5114 103.31 54.2376 97.5705C60.4593 90.016 70.45 87.3903 79.2409 90.1788L79.2808 90.1921C81.9928 83.3621 87.8756 77.9181 95.573 76.1068C98.3116 75.462 101.044 75.359 103.686 75.678C103.663 75.1629 103.609 74.6577 103.609 74.1359C103.609 67.2793 105.617 60.9014 109.033 55.5072C101.004 42.2095 86.463 33.2824 69.7953 33.2824C44.4762 33.2824 23.9531 53.8055 23.9531 79.1246C23.9531 94.2269 31.2882 107.571 42.5618 115.913Z" fill="#EDE21B"/>
<path d="M199.92 97.6103H199.651C199.767 98.6207 199.847 99.6411 199.847 100.685C199.847 102.523 198.361 104.008 196.524 104.008C194.686 104.008 193.2 102.523 193.2 100.685C193.2 89.6869 184.256 80.7432 173.258 80.7432C162.261 80.7432 153.317 89.6869 153.317 100.685C153.317 102.523 151.831 104.008 149.993 104.008C148.155 104.008 146.67 102.523 146.67 100.685C146.67 87.1776 156.803 76.0137 169.862 74.3386C169.111 57.5911 155.291 44.1837 138.361 44.1837C121.374 44.1837 107.515 57.6775 106.85 74.5048C109.605 75.1562 112.274 76.2331 114.753 77.7652C120.789 81.5043 125.01 87.3704 126.639 94.2834C127.057 96.0715 125.951 97.8596 124.166 98.2817C122.378 98.6839 120.59 97.5937 120.168 95.809C117.648 85.1004 106.876 78.4399 96.1912 80.9625C85.4859 83.4818 78.8255 94.2369 81.3447 104.942C81.7635 106.727 80.6567 108.515 78.8687 108.937C78.6161 108.997 78.3601 109.024 78.1076 109.024C76.602 109.024 75.236 107.99 74.8737 106.461C73.8966 102.303 73.983 98.1454 74.9136 94.2502C68.0737 93.2498 61.1639 95.8322 56.6571 101.303C52.4761 106.385 51.2563 112.929 52.7519 118.868C52.7553 118.908 52.7752 118.941 52.7785 118.981C53.7955 122.923 56.0024 126.592 59.3758 129.374C60.7917 130.544 60.9944 132.634 59.8312 134.053C59.1731 134.851 58.2226 135.263 57.262 135.263C56.5176 135.263 55.7731 135.017 55.1516 134.505C51.1068 131.175 48.2119 126.825 46.6897 121.939C33.2525 118.436 19.1239 124.089 11.8253 136.104C7.44816 143.31 6.13534 151.791 8.13614 159.984C10.1369 168.18 15.2054 175.103 22.4143 179.484C23.983 180.437 24.4815 182.478 23.5277 184.05C22.9028 185.08 21.806 185.645 20.686 185.645C20.244 185.645 19.8052 185.526 19.3831 185.343C24.6344 188.454 30.68 190.358 37.1444 190.637L64.4277 190.647C82.0659 190.365 97.175 179.48 103.616 164.085C110.14 179.683 125.562 190.674 143.499 190.674C174.654 190.674 200 165.328 200 134.173V100.937L199.92 97.6103Z" fill="#D0E8F9"/>
<path d="M176.509 74.5646C175.741 54.1611 158.947 37.7858 138.361 37.7858C117.947 37.7858 101.27 53.8853 100.239 74.0461C98.3847 74.086 96.5202 74.3054 94.669 74.7408C86.9051 76.5687 80.7598 81.6605 77.2899 88.2079C67.7114 86.2636 57.8536 89.647 51.5322 97.3212C47.3744 102.373 45.2872 108.648 45.5165 115.132C30.1283 112.36 14.4742 119.2 6.15196 132.894C0.847518 141.618 -0.737832 151.884 1.68174 161.802C4.10131 171.72 10.24 180.102 18.9644 185.406C19.5028 185.735 20.101 185.891 20.6893 185.891C21.8127 185.891 22.9061 185.323 23.531 184.296C24.4848 182.724 23.9863 180.683 22.4176 179.729C15.2087 175.349 10.1403 168.426 8.13946 160.23C6.13866 152.037 7.45148 143.556 11.8286 136.35C19.1272 124.339 33.2558 118.685 46.693 122.185C48.2152 127.074 51.1134 131.421 55.1549 134.751C55.7764 135.26 56.5209 135.509 57.2654 135.509C58.2259 135.509 59.1764 135.097 59.8345 134.299C61.0011 132.88 60.795 130.786 59.3792 129.62C56.0024 126.841 53.7989 123.169 52.7818 119.227C52.7785 119.187 52.7586 119.154 52.7553 119.114C51.2596 113.175 52.4794 106.631 56.6605 101.549C61.1672 96.0782 68.077 93.4957 74.9169 94.4961C73.9863 98.3947 73.8966 102.549 74.877 106.707C75.236 108.239 76.6053 109.269 78.1109 109.269C78.3635 109.269 78.6194 109.24 78.872 109.183C80.6601 108.761 81.7668 106.973 81.348 105.188C78.8288 94.4828 85.4892 83.7277 96.1945 81.2085C106.88 78.6859 117.652 85.3463 120.171 96.0549C120.593 97.8397 122.381 98.9298 124.169 98.5277C125.954 98.1056 127.061 96.3175 126.642 94.5294C125.013 87.6163 120.792 81.7502 114.757 78.0112C112.277 76.4757 109.608 75.4022 106.853 74.7507C107.518 57.9234 121.377 44.4297 138.364 44.4297C155.294 44.4297 169.117 57.8337 169.865 74.5846C156.807 76.2596 146.673 87.4236 146.673 100.931C146.673 102.769 148.159 104.254 149.997 104.254C151.835 104.254 153.32 102.769 153.32 100.931C153.32 89.9329 162.264 80.9891 173.262 80.9891C184.26 80.9891 193.356 89.9329 193.356 100.931C193.356 101.024 193.356 105.341 193.356 110.901C193.356 112.736 194.845 114.225 196.68 114.225C198.514 114.225 200.003 112.736 200.003 110.901V100.931C200 87.377 189.64 76.1765 176.509 74.5646Z" fill="#ABCADD"/>
<path d="M143.499 190.671C126.971 190.671 111.955 182.003 103.616 168.107C95.2772 182.003 80.2613 190.671 63.7331 190.671C61.8985 190.671 60.4095 189.185 60.4095 187.347C60.4095 185.509 61.8985 184.024 63.7331 184.024C79.8624 184.024 94.3134 174.388 100.552 159.476L103.616 152.144L106.68 159.476C112.915 174.385 127.37 184.024 143.499 184.024C145.334 184.024 146.823 185.509 146.823 187.347C146.823 189.185 145.337 190.671 143.499 190.671Z" fill="#ABCADD"/>
<path d="M183.04 143.725C181.518 130.501 170.267 120.187 156.641 120.187C141.98 120.187 130.052 132.116 130.052 146.776C130.052 148.611 131.541 150.1 133.375 150.1C135.21 150.1 136.699 148.611 136.699 146.776C136.699 135.778 145.643 126.835 156.641 126.835C166.621 126.835 174.887 134.21 176.333 143.792C167.037 145.483 159.964 153.619 159.964 163.394C159.964 165.229 161.453 166.718 163.288 166.718C165.122 166.718 166.611 165.229 166.611 163.394C166.611 156.062 172.574 150.1 179.906 150.1C187.237 150.1 193.2 156.062 193.2 163.394C193.2 165.229 194.689 166.718 196.524 166.718C198.358 166.718 199.847 165.229 199.847 163.394C199.847 153.466 192.549 145.237 183.04 143.725Z" fill="#ABCADD"/>
</g>
<defs>
<clipPath id="clip0_1_4">
<rect width="200" height="200" fill="white"/>
</clipPath>
</defs>
</svg>
