<svg width="200" height="200" viewBox="0 0 200 200" fill="none" xmlns="http://www.w3.org/2000/svg">
<g clip-path="url(#clip0_2_22)">
<path d="M100 0C98.16 0 96.6667 1.49333 96.6667 3.33333V23.3333C96.6667 25.1733 98.16 26.6667 100 26.6667C101.84 26.6667 103.333 25.1733 103.333 23.3333V3.33333C103.333 1.49333 101.84 0 100 0Z" fill="#F0C419"/>
<path d="M100 173.333C98.16 173.333 96.6667 174.827 96.6667 176.667V196.667C96.6667 198.507 98.16 200 100 200C101.84 200 103.333 198.507 103.333 196.667V176.667C103.333 174.827 101.84 173.333 100 173.333Z" fill="#F0C419"/>
<path d="M196.667 96.6667H176.667C174.827 96.6667 173.333 98.16 173.333 100C173.333 101.84 174.827 103.333 176.667 103.333H196.667C198.507 103.333 200 101.84 200 100C200 98.16 198.507 96.6667 196.667 96.6667Z" fill="#F0C419"/>
<path d="M26.6667 100C26.6667 98.16 25.1733 96.6667 23.3333 96.6667H3.33333C1.49333 96.6667 0 98.16 0 100C0 101.84 1.49333 103.333 3.33333 103.333H23.3333C25.1733 103.333 26.6667 101.84 26.6667 100Z" fill="#F0C419"/>
<path d="M154.213 49.12C155.067 49.12 155.92 48.7934 156.57 48.1434L175.69 29.0234C176.993 27.72 176.993 25.6134 175.69 24.31C174.387 23.0067 172.28 23.0067 170.977 24.31L151.857 43.43C150.553 44.7334 150.553 46.84 151.857 48.1434C152.507 48.7967 153.36 49.12 154.213 49.12Z" fill="#F0C419"/>
<path d="M43.43 151.857L24.31 170.977C23.0067 172.28 23.0067 174.387 24.31 175.69C24.96 176.34 25.8134 176.667 26.6667 176.667C27.52 176.667 28.3734 176.34 29.0234 175.69L48.1434 156.57C49.4467 155.267 49.4467 153.16 48.1434 151.857C46.84 150.553 44.7334 150.553 43.43 151.857Z" fill="#F0C419"/>
<path d="M156.57 151.857C155.267 150.553 153.16 150.553 151.857 151.857C150.553 153.16 150.553 155.267 151.857 156.57L170.977 175.69C171.627 176.34 172.48 176.667 173.333 176.667C174.187 176.667 175.04 176.34 175.69 175.69C176.993 174.387 176.993 172.28 175.69 170.977L156.57 151.857Z" fill="#F0C419"/>
<path d="M29.0234 24.31C27.72 23.0067 25.6134 23.0067 24.31 24.31C23.0067 25.6134 23.0067 27.72 24.31 29.0234L43.43 48.1434C44.08 48.7934 44.9334 49.12 45.7867 49.12C46.64 49.12 47.4934 48.7934 48.1434 48.1434C49.4467 46.84 49.4467 44.7334 48.1434 43.43L29.0234 24.31Z" fill="#F0C419"/>
<path d="M167.503 71.3467C168.043 72.6167 169.277 73.38 170.573 73.38C171.007 73.38 171.45 73.2933 171.873 73.1133L181.08 69.2067C182.773 68.4867 183.567 66.53 182.847 64.8367C182.127 63.1433 180.167 62.35 178.477 63.07L169.27 66.9767C167.573 67.6967 166.783 69.6533 167.503 71.3467Z" fill="#F0C419"/>
<path d="M32.4967 128.653C31.7767 126.96 29.82 126.167 28.1267 126.887L18.92 130.793C17.2267 131.513 16.4333 133.47 17.1533 135.163C17.6933 136.433 18.9267 137.197 20.2233 137.197C20.6567 137.197 21.1 137.11 21.5233 136.93L30.73 133.023C32.4267 132.303 33.2167 130.347 32.4967 128.653Z" fill="#F0C419"/>
<path d="M181.603 129.377L172.333 125.627C170.63 124.937 168.683 125.763 167.993 127.47C167.303 129.177 168.13 131.12 169.837 131.81L179.11 135.557C179.52 135.72 179.943 135.8 180.357 135.8C181.677 135.8 182.927 135.013 183.45 133.713C184.137 132.01 183.313 130.067 181.603 129.377Z" fill="#F0C419"/>
<path d="M18.3967 70.6267L27.6667 74.3733C28.0767 74.5367 28.5 74.6167 28.9133 74.6167C30.2333 74.6167 31.4833 73.83 32.0067 72.53C32.6967 70.8233 31.87 68.88 30.1633 68.19L20.89 64.4433C19.18 63.7533 17.24 64.5767 16.55 66.2867C15.8633 67.99 16.6867 69.9333 18.3967 70.6267Z" fill="#F0C419"/>
<path d="M133.023 169.27C132.303 167.577 130.347 166.787 128.653 167.503C126.96 168.223 126.167 170.18 126.887 171.873L130.793 181.08C131.333 182.35 132.567 183.113 133.863 183.113C134.297 183.113 134.74 183.027 135.163 182.847C136.857 182.127 137.65 180.17 136.93 178.477L133.023 169.27Z" fill="#F0C419"/>
<path d="M70.0466 32.7633C70.48 32.7633 70.9233 32.6767 71.3466 32.4967C73.04 31.7767 73.8333 29.82 73.1133 28.1267L69.2066 18.92C68.49 17.2233 66.5333 16.43 64.8366 17.1533C63.1433 17.8733 62.35 19.83 63.07 21.5233L66.9766 30.73C67.5133 32 68.75 32.7633 70.0466 32.7633Z" fill="#F0C419"/>
<path d="M72.53 167.993C70.8267 167.31 68.88 168.127 68.19 169.837L64.4434 179.11C63.7534 180.817 64.58 182.76 66.2867 183.45C66.6967 183.613 67.12 183.693 67.5334 183.693C68.8534 183.693 70.1033 182.907 70.6267 181.607L74.3734 172.333C75.0634 170.627 74.2367 168.683 72.53 167.993Z" fill="#F0C419"/>
<path d="M128.717 32.25C130.037 32.25 131.287 31.4633 131.81 30.1633L135.557 20.89C136.247 19.1833 135.42 17.24 133.713 16.55C132.01 15.86 130.063 16.6866 129.373 18.3933L125.627 27.6666C124.937 29.3733 125.763 31.3166 127.47 32.0066C127.88 32.17 128.303 32.25 128.717 32.25Z" fill="#F0C419"/>
<path d="M100 166.667C136.819 166.667 166.667 136.819 166.667 100C166.667 63.181 136.819 33.3333 100 33.3333C63.181 33.3333 33.3333 63.181 33.3333 100C33.3333 136.819 63.181 166.667 100 166.667Z" fill="#F0C419"/>
<path d="M100 150C127.614 150 150 127.614 150 100C150 72.3858 127.614 50 100 50C72.3858 50 50 72.3858 50 100C50 127.614 72.3858 150 100 150Z" fill="#EDE21B"/>
</g>
<defs>
<clipPath id="clip0_2_22">
<rect width="200" height="200" fill="white"/>
</clipPath>
</defs>
</svg>
